<?xml version="1.0" encoding="utf-8"?>
<!-- Generator: Adobe Illustrator 23.0.2, SVG Export Plug-In . SVG Version: 6.00 Build 0)  -->
<svg version="1.1" id="Layer_1" xmlns="http://www.w3.org/2000/svg" xmlns:xlink="http://www.w3.org/1999/xlink" x="0px" y="0px"
	 viewBox="0 0 45.6 46" style="enable-background:new 0 0 45.6 46;" xml:space="preserve">
<style type="text/css">
	.st0{fill:none;stroke:#000000;stroke-width:1.2185;stroke-miterlimit:10;}
</style>
<path class="st0" d="M38.7,38.7c0-14.3,1.9-15.7-14.1-15.7C8.1,23,9,23.8,9,38.1"/>
<g>
	<path d="M14.2,30.3c0.2,1.3,0.3,2.6,0.3,4c0,1.3-0.1,2.6-0.3,4c-0.2-1.3-0.3-2.6-0.3-4C13.9,32.9,14,31.6,14.2,30.3z"/>
</g>
<g>
	<path d="M33.4,30.3c0.2,1.3,0.3,2.6,0.3,4c0,1.3-0.1,2.6-0.3,4c-0.2-1.3-0.3-2.6-0.3-4C33.1,32.9,33.1,31.6,33.4,30.3z"/>
</g>
<circle class="st0" cx="23.8" cy="13.8" r="7.1"/>
</svg>
