<?xml version="1.0" encoding="utf-8"?>
<!-- Generator: Adobe Illustrator 23.0.1, SVG Export Plug-In . SVG Version: 6.00 Build 0)  -->
<svg version="1.1" id="Layer_1" xmlns="http://www.w3.org/2000/svg" xmlns:xlink="http://www.w3.org/1999/xlink" x="0px" y="0px"
	 viewBox="0 0 265.9 62.5" style="enable-background:new 0 0 265.9 62.5;" xml:space="preserve">
<style type="text/css">
	.st1{fill:none;stroke:#000000;stroke-width:0.75;stroke-miterlimit:10;}
	.st2{fill:none;stroke:#FFFFFF;stroke-width:0.75;stroke-miterlimit:10;}
</style>
<g>
	<path d="M156.7,33.1c0.4,3,2.1,4.7,5.1,4.7c2.7,0,4.5-0.9,4.5-2.5s-1.5-1.8-6.1-3.2c-4.9-1.4-7.6-3.2-7.6-6.6s3-6.9,8.5-6.9
		c5.5,0,8.4,2.8,9.5,6.7l-4.6,1.4c-0.7-1.9-1.8-3.5-4.9-3.5c-2.3,0-3.5,1-3.5,2.1c0,1.3,0.9,1.6,6.8,3.3c5.6,1.5,6.8,3.8,6.8,6.9
		c0,3.2-2.7,7-9.2,7c-6.8,0-9.7-4.2-10.3-8.1L156.7,33.1z"/>
	<path d="M173.3,19.2h5.5v22.6h-5.5V19.2z"/>
	<path d="M186.9,43.6c1.3,2.4,2.7,3.7,5.4,3.7c2.7,0,4.8-1.3,4.8-4.7v-2.9H197c-0.8,1.4-3,2.8-5.6,2.8c-5.5,0-10.2-4.2-10.2-11.9
		s5-11.9,10.1-11.9c3.1,0,5,1.5,6,2.8h0.1v-2.2h5.3v22.6c0,6.9-4.5,10.2-10.3,10.2c-4.9,0-8.1-2.4-9.6-5.6L186.9,43.6z M197.1,28.2
		c0-2.5-1.8-4.6-4.9-4.6c-3.1,0-5.5,2.3-5.5,6.9c0,4.6,2.4,6.9,5.5,6.9c3,0,4.9-2.1,4.9-4.6V28.2z"/>
	<path d="M186.9,43.6c1.3,2.4,2.7,3.7,5.4,3.7c2.7,0,4.8-1.3,4.8-4.7v-2.9H197c-0.8,1.4-3,2.8-5.6,2.8c-5.5,0-10.2-4.2-10.2-11.9
		s5-11.9,10.1-11.9c3.1,0,5,1.5,6,2.8h0.1v-2.2h5.3v22.6c0,6.9-4.5,10.2-10.3,10.2c-4.9,0-8.1-2.4-9.6-5.6L186.9,43.6z M197.1,28.2
		c0-2.5-1.8-4.6-4.9-4.6c-3.1,0-5.5,2.3-5.5,6.9c0,4.6,2.4,6.9,5.5,6.9c3,0,4.9-2.1,4.9-4.6V28.2z"/>
	<path d="M206.3,19.2h5.3v2.2h0.1c1.2-1.5,3.5-2.8,6-2.8c5,0,8,3.1,8,8.4v14.8h-5.5V28.4c0-2.9-0.9-4.7-4-4.7
		c-2.7,0-4.3,1.7-4.3,4.3v13.8h-5.5V19.2z"/>
	<path d="M232.6,33.1c0.4,3,2.1,4.7,5.1,4.7c2.7,0,4.5-0.9,4.5-2.5s-1.5-1.8-6.1-3.2c-4.9-1.4-7.6-3.2-7.6-6.6s3-6.9,8.5-6.9
		c5.5,0,8.4,2.8,9.5,6.7l-4.6,1.4c-0.7-1.9-1.8-3.5-4.9-3.5c-2.3,0-3.5,1-3.5,2.1c0,1.3,0.9,1.6,6.8,3.3c5.6,1.5,6.8,3.8,6.8,6.9
		c0,3.2-2.7,7-9.2,7c-6.8,0-9.7-4.2-10.3-8.1L232.6,33.1z"/>
	<path d="M106,12h10c6.6,0,12.9,4.6,12.9,14.9c0,11.4-6.6,15-13.2,15H106V12z M115.8,36.5c3.7,0,7-1.4,7-9.6c0-7-3-9.5-6.7-9.5h-4.2
		v19.2H115.8z"/>
	<path d="M150.2,37.5c-1.9,2.7-4.6,5-9.3,5c-6.2,0-10.7-4.6-10.7-11.9c0-7.3,4.6-11.9,10.4-11.9c5.9,0,10.4,4.6,10.4,11.9v1.7h-15.2
		c0.2,3.5,2,5.4,5,5.4c2.9,0,4.4-2,5.5-3.5L150.2,37.5z M145.6,28.1c-0.3-2.9-2-4.6-5-4.6c-2.8,0-4.6,2.1-4.8,4.6H145.6z"/>
	<path d="M14,12h10c6.6,0,12.9,4.6,12.9,14.9c0,11.4-6.6,15-13.2,15H14V12z M23.7,36.5c3.7,0,7-1.4,7-9.6c0-7-3-9.5-6.7-9.5h-4.2
		v19.2H23.7z"/>
	<path d="M58.2,37.5c-1.9,2.7-4.6,5-9.3,5c-6.2,0-10.7-4.6-10.7-11.9c0-7.3,4.6-11.9,10.4-11.9c5.9,0,10.4,4.6,10.4,11.9v1.7H43.8
		c0.2,3.5,2,5.4,5,5.4c2.9,0,4.4-2,5.5-3.5L58.2,37.5z M53.6,28.1c-0.3-2.9-2-4.6-5-4.6c-2.8,0-4.6,2.1-4.8,4.6H53.6z"/>
	<path d="M61.3,19.3h5.3v2.2h0.1c1.2-1.5,3.5-2.8,6-2.8c5,0,8,3.1,8,8.4v14.8h-5.5V28.4c0-2.9-0.9-4.7-4-4.7c-2.7,0-4.3,1.7-4.3,4.3
		v13.8h-5.5V19.3z"/>
	<path d="M89.6,41.5l-8.9-22.2h5.6l5.8,15.3h-0.1l5.8-15.3h5.8l-13,32.2h-5.7L89.6,41.5z"/>
	<circle cx="176" cy="13.3" r="3.1"/>
	<circle cx="251.4" cy="38.7" r="3.1"/>
</g>
</svg>
